<?xml version="1.0" encoding="UTF-8"?>
<svg id="Layer_1" xmlns="http://www.w3.org/2000/svg" version="1.1" xmlns:xlink="http://www.w3.org/1999/xlink" viewBox="0 0 1366 768">
  <!-- Generator: Adobe Illustrator 29.6.0, SVG Export Plug-In . SVG Version: 2.1.1 Build 207)  -->
  <defs>
    <style>
      .st0 {
        fill: url(#linear-gradient2);
      }

      .st1 {
        fill: #db3a1e;
      }

      .st2 {
        fill: url(#linear-gradient1);
      }

      .st3 {
        fill: url(#linear-gradient4);
      }

      .st4 {
        fill: url(#linear-gradient3);
      }

      .st5 {
        fill: #e67623;
      }

      .st6 {
        fill: url(#linear-gradient);
      }
    </style>
    <linearGradient id="linear-gradient" x1="846.45" y1="254.96" x2="812.58" y2="429.19" gradientTransform="translate(0 768) scale(1 -1)" gradientUnits="userSpaceOnUse">
      <stop offset="0" stop-color="#e67623"/>
      <stop offset=".87" stop-color="#db3a1e"/>
      <stop offset="1" stop-color="#000" stop-opacity=".9"/>
    </linearGradient>
    <linearGradient id="linear-gradient1" x1="207.23" y1="246.8" x2="193.22" y2="312.7" gradientTransform="translate(0 768) scale(1 -1)" gradientUnits="userSpaceOnUse">
      <stop offset="0" stop-color="#e67623"/>
      <stop offset=".55" stop-color="#db3a1e"/>
      <stop offset="1" stop-color="#000" stop-opacity=".9"/>
    </linearGradient>
    <linearGradient id="linear-gradient2" x1="538.81" y1="246.46" x2="514.57" y2="371.13" gradientTransform="translate(0 768) scale(1 -1)" gradientUnits="userSpaceOnUse">
      <stop offset="0" stop-color="#e67623"/>
      <stop offset=".8" stop-color="#db3a1e"/>
      <stop offset="1" stop-color="#000" stop-opacity=".9"/>
    </linearGradient>
    <linearGradient id="linear-gradient3" x1="1120.23" y1="245.07" x2="1075.23" y2="476.56" gradientTransform="translate(0 768) scale(1 -1)" gradientUnits="userSpaceOnUse">
      <stop offset="0" stop-color="#e67623"/>
      <stop offset=".9" stop-color="#db3a1e"/>
      <stop offset="1" stop-color="#000" stop-opacity=".9"/>
    </linearGradient>
    <linearGradient id="linear-gradient4" x1="1317.1" y1="354.07" x2="1285.76" y2="515.29" gradientTransform="translate(0 768) scale(1 -1)" gradientUnits="userSpaceOnUse">
      <stop offset="0" stop-color="#e67623"/>
      <stop offset=".85" stop-color="#db3a1e"/>
      <stop offset="1" stop-color="#000" stop-opacity=".9"/>
    </linearGradient>
  </defs>
  <path class="st6" d="M862.32,330.07c1.41,4.01,2.13,8.52,2.13,13.55,0,10.44-3.03,18.68-9.07,24.71-6.05,6.04-15.38,9.06-27.98,9.06h-33.19v-34.48l-91.09,17.18v163.1h91.09v-70.84h38.98c25.22,0,47.02-4.46,65.42-13.39,18.39-8.92,32.61-21.48,42.65-37.69,10.03-16.2,15.05-35.42,15.05-57.66,0-10.91-1.22-21.11-3.63-30.6l-90.36,17.04v.02Z"/>
  <path class="st2" d="M65.61,482.43c13.92,13,30.39,23.04,49.43,30.13,19.03,7.09,39.84,10.63,62.43,10.63s42.93-3.54,61.84-10.63c18.91-7.09,35.31-17.13,49.23-30.13s24.75-28.29,32.49-45.89c.36-.83.71-1.66,1.06-2.5l-256.49,48.38h0Z"/>
  <path class="st0" d="M572.62,386.79c-.58,7.7-2.06,14.77-4.44,21.2-3.15,8.54-7.55,15.75-13.19,21.66-5.65,5.91-12.21,10.44-19.69,13.59s-15.56,4.73-24.22,4.73-16.74-1.58-24.22-4.73c-7.48-3.15-14.05-7.68-19.69-13.59-5.4-5.65-9.64-12.51-12.76-20.56l-91.29,17.22c1.2,3.47,2.53,6.88,4.01,10.23,7.74,17.6,18.57,32.89,32.49,45.89,13.92,13,30.39,23.04,49.43,30.13,19.03,7.09,39.84,10.63,62.43,10.63s42.93-3.54,61.84-10.63c18.91-7.09,35.31-17.13,49.23-30.13s24.75-28.29,32.49-45.89c7.74-17.59,11.62-36.76,11.62-57.51,0-3.36-.11-6.66-.31-9.93l-93.72,17.68h0Z"/>
  <path class="st4" d="M1194.24,370.37c-9.06-6.04-18.97-10.89-29.74-14.57-10.77-3.67-21.6-6.56-32.49-8.67-10.9-2.1-20.88-4.07-29.93-5.91-9.06-1.83-16.35-4.14-21.86-6.89-5.51-2.76-8.27-6.5-8.27-11.23,0-3.15,1.11-6.04,3.35-8.67,2.23-2.62,5.97-4.73,11.23-6.3,5.25-1.58,12.34-2.36,21.27-2.36,12.07,0,24.48,1.71,37.22,5.12,12.73,3.42,25.93,8.54,39.58,15.36l24.74-59.58-227.19,42.86c-1.31,5.89-1.97,11.99-1.97,18.3,0,14.71,2.76,26.98,8.27,36.83s12.8,17.79,21.86,23.83c9.06,6.04,19.04,10.9,29.93,14.57,10.89,3.68,21.72,6.63,32.49,8.86,10.76,2.23,20.68,4.33,29.74,6.3,9.06,1.97,16.35,4.4,21.86,7.29s8.27,6.83,8.27,11.82c0,3.15-1.18,5.85-3.55,8.07-2.36,2.23-6.1,3.94-11.22,5.12s-12.15,1.77-21.07,1.77c-15.23,0-30.92-2.3-47.07-6.89-16.15-4.59-30.79-10.7-43.92-18.32l-29.93,67.75c13.92,8.41,31.64,15.23,53.17,20.48s43.85,7.88,66.96,7.88c28.62,0,52.39-4.27,71.29-12.8,18.91-8.53,33.15-19.82,42.74-33.87,9.58-14.04,14.38-29.47,14.38-46.28,0-14.44-2.76-26.52-8.27-36.24-5.52-9.71-12.8-17.59-21.86-23.63h-.01Z"/>
  <path class="st5" d="M1328.95,442.85c-9.59-8.92-22.13-13.39-37.62-13.39s-27.71,4.47-37.42,13.39c-9.72,8.93-14.57,19.96-14.57,33.09s4.86,23.96,14.57,33.28c9.71,9.32,22.19,13.98,37.42,13.98s28.03-4.66,37.62-13.98c9.58-9.32,14.38-20.41,14.38-33.28s-4.79-24.16-14.38-33.09Z"/>
  <polygon class="st3" points="1240.21 261.57 1255.89 412.05 1326.78 412.05 1344.51 241.9 1240.21 261.57"/>
  <path class="st1" d="M332.65,379.05c0-21-3.88-40.24-11.62-57.7-7.75-17.46-18.58-32.69-32.49-45.69-13.92-13-30.33-23.04-49.23-30.13-18.91-7.09-39.65-10.63-62.23-10.63s-43,3.54-62.04,10.63c-19.04,7.09-35.52,17.13-49.43,30.13-13.92,13-24.75,28.23-32.49,45.69-7.75,17.47-11.62,36.7-11.62,57.7s3.87,39.92,11.62,57.51c7.74,17.6,18.57,32.89,32.49,45.89l256.49-48.38c7.03-16.9,10.56-35.24,10.56-55.01h-.01ZM234.18,408c-3.15,8.54-7.55,15.75-13.19,21.66-5.65,5.91-12.21,10.44-19.69,13.59s-15.56,4.73-24.22,4.73-16.74-1.58-24.22-4.73c-7.48-3.15-14.05-7.68-19.69-13.59-5.65-5.91-10.04-13.13-13.19-21.66s-4.73-18.18-4.73-28.95,1.58-20.41,4.73-28.95c3.15-8.53,7.55-15.75,13.19-21.66s12.21-10.44,19.69-13.59,15.56-4.73,24.22-4.73,16.74,1.58,24.22,4.73c7.48,3.15,14.04,7.68,19.69,13.59,5.64,5.91,10.04,13.13,13.19,21.66,3.15,8.54,4.73,18.19,4.73,28.95s-1.58,20.42-4.73,28.95Z"/>
  <path class="st1" d="M453.96,408c-3.15-8.53-4.73-18.18-4.73-28.95s1.58-20.41,4.73-28.95c3.15-8.53,7.55-15.75,13.19-21.66s12.21-10.44,19.69-13.59,15.56-4.73,24.22-4.73,16.74,1.58,24.22,4.73c7.48,3.15,14.04,7.68,19.69,13.59,5.64,5.91,10.04,13.13,13.19,21.66,3.15,8.54,4.73,18.19,4.73,28.95,0,2.65-.1,5.23-.29,7.75l93.72-17.68c-1.04-17.17-4.81-33.1-11.31-47.77-7.75-17.46-18.58-32.69-32.49-45.69-13.92-13-30.33-23.04-49.23-30.13-18.91-7.09-39.65-10.63-62.23-10.63s-43,3.54-62.04,10.63c-19.04,7.09-35.52,17.13-49.43,30.13-13.92,13-24.75,28.23-32.49,45.69-7.75,17.47-11.62,36.7-11.62,57.7,0,16.79,2.54,32.55,7.61,47.27l91.29-17.22c-.14-.37-.3-.73-.44-1.1h.02Z"/>
  <path class="st1" d="M1212.56,258.93c-14.44-8.14-30.72-14.18-48.84-18.12s-36.5-5.91-55.14-5.91c-28.36,0-52.06,4.2-71.09,12.6-19.04,8.41-33.35,19.63-42.93,33.68-6.05,8.86-10.18,18.32-12.41,28.38l227.19-42.86,3.23-7.77h-.01Z"/>
  <path class="st1" d="M794.21,309.86h33.19c12.6,0,21.93,3.02,27.98,9.06,3.13,3.13,5.43,6.86,6.94,11.16l90.36-17.04c-2.51-9.85-6.31-18.95-11.42-27.27-10.03-16.33-24.25-28.9-42.65-37.69-18.4-8.78-40.21-13.18-65.42-13.18h-130.07v125.21l91.09-17.18v-33.07h0Z"/>
  <polygon class="st1" points="1238.16 241.9 1240.21 261.57 1344.51 241.9 1238.16 241.9"/>
</svg>