<?xml version="1.0" encoding="utf-8"?>
<!-- Generator: Adobe Illustrator 16.0.4, SVG Export Plug-In . SVG Version: 6.00 Build 0)  -->
<!DOCTYPE svg PUBLIC "-//W3C//DTD SVG 1.1//EN" "http://www.w3.org/Graphics/SVG/1.1/DTD/svg11.dtd">
<svg version="1.1" id="Layer_1" xmlns="http://www.w3.org/2000/svg" x="0px" y="0px"
	 width="248px" height="248px" viewBox="0 0 248 248" enable-background="new 0 0 248 248" xml:space="preserve">
<g>
	<path fill="#000" d="M55.052,188.17c4.173,0,7.477,2.043,9.909,6.131c0.749,1.654,1.12,3.375,1.12,5.16v9.348
		c0,0.789-0.51,1.271-1.531,1.445h-0.087c-0.689,0-1.202-0.404-1.532-1.211v-0.084l0.088-2.008v-0.086
		c-2.378,2.258-4.93,3.389-7.663,3.389h-0.628c-3.743,0-6.864-1.877-9.366-5.635c-0.908-1.814-1.361-3.641-1.361-5.482
		c0-4.102,2.013-7.354,6.044-9.758C51.757,188.574,53.425,188.17,55.052,188.17z M47.152,199.049v0.238
		c0,3.209,1.609,5.627,4.835,7.252c1.021,0.375,1.935,0.562,2.74,0.562h0.628c2.676,0,4.883-1.34,6.628-4.016
		c0.63-1.264,0.947-2.473,0.947-3.625v-0.324c0-3.096-1.525-5.463-4.576-7.104c-1.064-0.475-2.165-0.711-3.303-0.711h-0.086
		c-3.251,0-5.7,1.691-7.341,5.072C47.31,197.445,47.152,198.328,47.152,199.049z"/>
	<path fill="#000" d="M81.194,188.236c2.82,0,5.375,1.064,7.663,3.191c2.188,2.307,3.281,4.889,3.281,7.75
		c0,4.104-1.944,7.328-5.827,9.674c-1.687,0.848-3.312,1.273-4.879,1.273h-0.649c-2.532,0-5.007-1.094-7.426-3.281v11.031
		c0,0.676-0.531,1.129-1.596,1.359c-0.765,0-1.267-0.533-1.512-1.598v-17.746c0-5.525,2.612-9.254,7.836-11.18
		C78.733,188.508,79.769,188.35,81.194,188.236z M73.444,198.941v0.412c0,2.906,1.41,5.164,4.23,6.777
		c1.023,0.529,2.115,0.797,3.281,0.797h0.477c3.035,0,5.352-1.566,6.952-4.707c0.373-0.99,0.561-1.947,0.561-2.867v-0.412
		c0-2.432-1.118-4.482-3.347-6.15c-1.325-0.91-2.821-1.363-4.491-1.363c-3.308,0-5.729,1.738-7.252,5.203
		C73.583,197.48,73.444,198.252,73.444,198.941z"/>
	<path fill="#000" d="M106.493,188.236c2.82,0,5.375,1.064,7.663,3.191c2.187,2.307,3.281,4.889,3.281,7.75
		c0,4.104-1.944,7.328-5.829,9.674c-1.683,0.848-3.31,1.273-4.877,1.273h-0.649c-2.532,0-5.009-1.094-7.426-3.281v11.031
		c0,0.676-0.531,1.129-1.596,1.359c-0.763,0-1.269-0.533-1.512-1.598v-17.746c0-5.525,2.612-9.254,7.838-11.18
		C104.032,188.508,105.069,188.35,106.493,188.236z M98.745,198.941v0.412c0,2.906,1.41,5.164,4.229,6.777
		c1.023,0.529,2.117,0.797,3.283,0.797h0.475c3.035,0,5.352-1.566,6.95-4.707c0.373-0.99,0.561-1.947,0.561-2.867v-0.412
		c0-2.432-1.116-4.482-3.345-6.15c-1.327-0.91-2.821-1.363-4.493-1.363c-3.308,0-5.725,1.738-7.25,5.203
		C98.88,197.48,98.745,198.252,98.745,198.941z"/>
	<path fill="#000" d="M122.358,179.449h0.326c0.979,0.201,1.466,0.633,1.466,1.297v26.334h1.705c0.705,0,1.164,0.518,1.382,1.553
		v0.066c-0.173,1.035-0.69,1.555-1.555,1.555h-3.151c-0.832,0-1.351-0.541-1.553-1.621v-27.414
		C121.107,180.041,121.566,179.449,122.358,179.449z"/>
	<path fill="#000" d="M141.594,188.277c2.835,0,5.403,1.072,7.705,3.219c2.188,2.303,3.284,4.893,3.284,7.768
		c0,4.117-1.954,7.355-5.852,9.717c-1.683,0.848-3.316,1.273-4.898,1.273h-0.647c-2.953,0-5.7-1.391-8.248-4.168
		c-1.556-2.201-2.332-4.477-2.332-6.822c0-3.566,1.575-6.561,4.728-8.979C137.348,188.949,139.434,188.277,141.594,188.277z
		 M133.822,199.027v0.389c0,2.938,1.416,5.211,4.252,6.822c1.021,0.531,2.117,0.797,3.283,0.797h0.475
		c3.037,0,5.359-1.574,6.971-4.725c0.373-0.994,0.562-1.959,0.562-2.895v-0.389c0-2.447-1.122-4.504-3.366-6.172
		c-1.312-0.908-2.805-1.359-4.491-1.359c-3.325,0-5.756,1.732-7.296,5.201C133.951,197.545,133.822,198.322,133.822,199.027z"/>
	<path fill="#000" d="M167,188.17c4.174,0,7.477,2.043,9.908,6.131c0.748,1.654,1.123,3.375,1.123,5.16v9.348
		c0,0.789-0.51,1.271-1.533,1.445h-0.086c-0.689,0-1.201-0.404-1.531-1.211v-0.084l0.086-2.008v-0.086
		c-2.375,2.258-4.928,3.389-7.662,3.389h-0.627c-3.745,0-6.866-1.877-9.37-5.635c-0.908-1.814-1.361-3.641-1.361-5.482
		c0-4.102,2.016-7.354,6.045-9.758C163.705,188.574,165.377,188.17,167,188.17z M159.099,199.049v0.238
		c0,3.209,1.611,5.627,4.838,7.252c1.021,0.375,1.933,0.562,2.741,0.562h0.627c2.674,0,4.885-1.34,6.625-4.016
		c0.635-1.264,0.951-2.473,0.951-3.625v-0.324c0-3.096-1.525-5.463-4.578-7.104c-1.064-0.475-2.164-0.711-3.303-0.711h-0.086
		c-3.255,0-5.7,1.691-7.341,5.072C159.257,197.445,159.099,198.328,159.099,199.049z"/>
	<path fill="#000" d="M202.121,179.342h0.324c0.979,0.201,1.467,0.641,1.467,1.316v16.145l0.088,2.766
		c0,2.131-0.871,4.359-2.613,6.691c-2.461,2.662-5.23,3.994-8.311,3.994h-0.648c-3.01,0-5.807-1.41-8.396-4.23
		c-1.582-2.246-2.373-4.562-2.373-6.951c0-3.613,1.604-6.658,4.811-9.131c2.045-1.354,4.168-2.031,6.369-2.031
		c2.836,0,5.498,1.117,7.988,3.348v-9.219l-0.086-1.293C201.042,179.811,201.501,179.342,202.121,179.342z M184.828,198.834v0.41
		c0,3.324,1.744,5.801,5.227,7.426c0.936,0.273,1.777,0.41,2.525,0.41h0.496c3.238,0,5.684-1.74,7.34-5.225
		c0.273-1.051,0.41-1.863,0.41-2.439v-0.498c0-3.307-1.77-5.783-5.311-7.422c-1.08-0.275-1.92-0.412-2.525-0.412h-0.324
		c-3.238,0-5.684,1.713-7.34,5.137C184.994,197.186,184.828,198.057,184.828,198.834z"/>
</g>
<g>
	
		<linearGradient id="SVGID_1_" gradientUnits="userSpaceOnUse" x1="-145.3633" y1="-618.5996" x2="-148.9359" y2="-513.6401" gradientTransform="matrix(0.9397 -0.342 0.342 0.9397 418.7878 577.9711)">
		<stop  offset="0" style="stop-color:#EE7623"/>
		<stop  offset="1" style="stop-color:#E2251D"/>
	</linearGradient>
	<path fill="url(#SVGID_1_)" d="M92.453,169.827c-5.725,2.084-11.843,2.641-17.695,1.609c-10.204-1.801-18.949-7.979-24.615-17.395
		c-5.405-8.977-7.33-19.859-5.429-30.643l12.383-58.186c2.832-16.072,13.23-29.202,27.143-34.264
		c5.726-2.084,11.845-2.64,17.697-1.608c10.263,1.809,19.014,8.14,24.641,17.821c5.309,9.136,7.166,20.225,5.224,31.22
		l-12.202,57.181C116.768,151.632,106.362,164.765,92.453,169.827z M91.03,49.603c-7.157,2.606-12.805,10.085-14.389,19.058
		l-12.378,58.186c-1.072,6.067-0.047,12.089,2.885,16.958c2.664,4.424,6.589,7.295,11.055,8.082
		c2.462,0.434,4.969,0.191,7.461-0.713c7.155-2.605,12.803-10.086,14.384-19.057l12.207-57.18
		c1.126-6.386,0.118-12.709-2.841-17.798c-2.637-4.543-6.517-7.469-10.925-8.247C96.028,48.457,93.519,48.697,91.03,49.603z"/>
	<g>
		<linearGradient id="SVGID_2_" gradientUnits="userSpaceOnUse" x1="101.6006" y1="126.8262" x2="117.8962" y2="51.2937">
			<stop  offset="0" style="stop-color:#000;stop-opacity:0"/>
			<stop  offset="1" style="stop-color:#000"/>
		</linearGradient>
		<path fill="url(#SVGID_2_)" d="M98.487,48.912c4.408,0.776,8.287,3.704,10.927,8.245c2.954,5.09,3.963,11.412,2.839,17.8
			l-12.205,57.181c-0.426,2.42-1.158,4.725-2.126,6.861l20.283,2.4c0.574-1.889,1.042-3.828,1.392-5.814l12.204-57.183
			c1.938-10.996,0.083-22.084-5.226-31.217L98.487,48.912z"/>
	</g>
	<linearGradient id="SVGID_3_" gradientUnits="userSpaceOnUse" x1="80.7393" y1="100.4038" x2="203.999" y2="100.4038">
		<stop  offset="0" style="stop-color:#EE7623"/>
		<stop  offset="1" style="stop-color:#E2251D"/>
	</linearGradient>
	<path fill="url(#SVGID_3_)" d="M203.226,122.282c-0.965-5.396-6.125-8.986-11.518-8.022c-5.398,0.964-8.988,6.128-8.02,11.521
		c1.139,6.386,0.15,12.714-2.79,17.806c-2.627,4.551-6.5,7.49-10.908,8.277c-4.408,0.789-9.06-0.623-13.101-3.975
		c-4.522-3.76-7.652-9.348-8.796-15.734l-14.315-66.916c-5.769-24.263-22.226-39.966-44.723-35.663
		c-5.385,1.029-9.12,5.892-8.168,11.29c0.949,5.395,6.095,9.003,11.498,8.053c9.656-1.696,18.983,4.732,21.842,19.767l14.327,66.972
		c1.969,10.992,7.527,20.76,15.659,27.504c8.619,7.156,19.014,10.08,29.279,8.244c5.967-1.07,11.425-3.67,16.048-7.566
		c3.318-2.801,6.203-6.271,8.551-10.322C203.369,144.368,205.197,133.28,203.226,122.282z"/>
</g>
</svg>
