<svg width="238" height="62" viewBox="0 0 238 62" fill="none" xmlns="http://www.w3.org/2000/svg">
	<path d="M91.6953 19.832C95.7773 19.832 99.0083 21.8291 101.388 25.8281C102.12 27.4463 102.483 29.1299 102.483 30.876V40.0186C102.483 40.791 101.985 41.2627 100.986 41.4326H100.901C100.226 41.4326 99.7253 41.0361 99.4023 40.248V40.166L99.4883 38.2012V38.1172C97.1622 40.3252 94.6663 41.4326 91.9922 41.4326H91.3783C87.7173 41.4326 84.6643 39.5967 82.2173 35.9209C81.3293 34.1455 80.8853 32.3594 80.8853 30.5586C80.8853 26.5469 82.8542 23.3652 86.7973 21.0137C88.4723 20.2266 90.1042 19.832 91.6953 19.832ZM83.9693 30.4727V30.7061C83.9693 33.8438 85.5433 36.21 88.6983 37.7988C89.6963 38.166 90.5903 38.3486 91.3783 38.3486H91.9922C94.6103 38.3486 96.7682 37.0391 98.4753 34.4209C99.0912 33.1846 99.4023 32.0029 99.4023 30.876V30.5586C99.4023 27.5303 97.9102 25.2148 94.9263 23.6104C93.8853 23.1455 92.8083 22.915 91.6953 22.915H91.6113C88.4313 22.915 86.0363 24.5693 84.4313 27.876C84.1233 28.9033 83.9693 29.7676 83.9693 30.4727Z" fill="white"/>
	<path d="M117.266 19.8965C120.024 19.8965 122.523 20.9375 124.761 23.0176C126.901 25.2744 127.971 27.7998 127.971 30.5986C127.971 34.6113 126.069 37.7666 122.271 40.0605C120.621 40.8896 119.032 41.3057 117.499 41.3057H116.864C114.387 41.3057 111.966 40.2363 109.6 38.0967V48.8867C109.6 49.5479 109.081 49.9902 108.04 50.2158C107.292 50.2158 106.801 49.6943 106.561 48.6533V31.2959C106.561 25.8916 109.116 22.2441 114.225 20.3604C114.859 20.1611 115.871 20.0078 117.266 19.8965ZM109.685 30.3672V30.7705C109.685 33.6123 111.065 35.8213 113.823 37.3994C114.824 37.917 115.892 38.1787 117.033 38.1787H117.499C120.468 38.1787 122.733 36.6465 124.299 33.5742C124.664 32.6064 124.847 31.6699 124.847 30.7705V30.3672C124.847 27.9883 123.753 25.9824 121.574 24.3516C120.277 23.4619 118.814 23.0176 117.181 23.0176C113.946 23.0176 111.578 24.7188 110.088 28.1074C109.821 28.9385 109.685 29.6924 109.685 30.3672Z" fill="white"/>
	<path d="M142.011 19.8965C144.77 19.8965 147.268 20.9375 149.506 23.0176C151.645 25.2744 152.716 27.7998 152.716 30.5986C152.716 34.6113 150.814 37.7666 147.014 40.0605C145.369 40.8896 143.777 41.3057 142.244 41.3057H141.609C139.132 41.3057 136.71 40.2363 134.346 38.0967V48.8867C134.346 49.5479 133.826 49.9902 132.785 50.2158C132.039 50.2158 131.544 49.6943 131.306 48.6533V31.2959C131.306 25.8916 133.861 22.2441 138.973 20.3604C139.604 20.1611 140.618 20.0078 142.011 19.8965ZM134.433 30.3672V30.7705C134.433 33.6123 135.812 35.8213 138.568 37.3994C139.57 37.917 140.639 38.1787 141.78 38.1787H142.244C145.213 38.1787 147.479 36.6465 149.042 33.5742C149.407 32.6064 149.59 31.6699 149.59 30.7705V30.3672C149.59 27.9883 148.499 25.9824 146.319 24.3516C145.021 23.4619 143.559 23.0176 141.924 23.0176C138.689 23.0176 136.325 24.7188 134.833 28.1074C134.564 28.9385 134.433 29.6924 134.433 30.3672Z" fill="white"/>
	<path d="M157.529 11.3018H157.848C158.805 11.499 159.282 11.9209 159.282 12.5693V38.3271H160.95C161.639 38.3271 162.088 38.834 162.301 39.8467V39.9111C162.132 40.9238 161.626 41.4326 160.781 41.4326H157.698C156.884 41.4326 156.377 40.9023 156.179 39.8467V13.0322C156.305 11.8809 156.754 11.3018 157.529 11.3018Z" fill="white"/>
	<path d="M176.343 19.9365C179.116 19.9365 181.629 20.9854 183.88 23.085C186.02 25.3369 187.092 27.8701 187.092 30.6826C187.092 34.71 185.181 37.877 181.368 40.1865C179.722 41.0156 178.124 41.4326 176.577 41.4326H175.943C173.055 41.4326 170.368 40.0713 167.876 37.3555C166.354 35.2021 165.595 32.9766 165.595 30.6826C165.595 27.1934 167.135 24.2656 170.219 21.9004C172.19 20.5938 174.231 19.9365 176.343 19.9365ZM168.742 30.4512V30.832C168.742 33.7041 170.127 35.9287 172.901 37.5049C173.9 38.0234 174.972 38.2832 176.112 38.2832H176.577C179.547 38.2832 181.819 36.7432 183.395 33.6621C183.76 32.6904 183.944 31.7461 183.944 30.832V30.4512C183.944 28.0576 182.846 26.0459 180.651 24.415C179.369 23.5264 177.908 23.085 176.258 23.085C173.006 23.085 170.629 24.7793 169.122 28.1729C168.868 29.002 168.742 29.7617 168.742 30.4512Z" fill="white"/>
	<path d="M201.194 19.832C205.277 19.832 208.507 21.8291 210.886 25.8281C211.617 27.4463 211.984 29.1299 211.984 30.876V40.0186C211.984 40.791 211.485 41.2627 210.484 41.4326H210.4C209.726 41.4326 209.225 41.0361 208.903 40.248V40.166L208.987 38.2012V38.1172C206.664 40.3252 204.167 41.4326 201.492 41.4326H200.879C197.216 41.4326 194.163 39.5967 191.714 35.9209C190.826 34.1455 190.382 32.3594 190.382 30.5586C190.382 26.5469 192.354 23.3652 196.295 21.0137C197.97 20.2266 199.607 19.832 201.194 19.832ZM193.466 30.4727V30.7061C193.466 33.8438 195.042 36.21 198.198 37.7988C199.196 38.166 200.088 38.3486 200.879 38.3486H201.492C204.108 38.3486 206.27 37.0391 207.972 34.4209C208.593 33.1846 208.903 32.0029 208.903 30.876V30.5586C208.903 27.5303 207.411 25.2148 204.425 23.6104C203.384 23.1455 202.308 22.915 201.194 22.915H201.11C197.927 22.915 195.535 24.5693 193.93 27.876C193.62 28.9033 193.466 29.7676 193.466 30.4727Z" fill="white"/>
	<path d="M235.546 11.1963H235.863C236.82 11.3936 237.298 11.8223 237.298 12.4834V28.2754L237.384 30.9805C237.384 33.0645 236.532 35.2441 234.827 37.5254C232.42 40.1299 229.711 41.4326 226.699 41.4326H226.064C223.121 41.4326 220.385 40.0527 217.852 37.2949C216.304 35.0977 215.531 32.832 215.531 30.4951C215.531 26.9609 217.099 23.9824 220.236 21.5645C222.236 20.2402 224.313 19.5771 226.466 19.5771C229.24 19.5771 231.843 20.6699 234.279 22.8516V13.835L234.195 12.5693C234.491 11.6543 234.94 11.1963 235.546 11.1963ZM218.631 30.2627V30.6641C218.631 33.915 220.337 36.3369 223.743 37.9268C224.658 38.1934 225.482 38.3271 226.214 38.3271H226.699C229.866 38.3271 232.258 36.626 233.878 33.2178C234.145 32.1895 234.279 31.3945 234.279 30.832V30.3447C234.279 27.1094 232.548 24.6875 229.085 23.085C228.028 22.8154 227.207 22.6816 226.615 22.6816H226.298C223.13 22.6816 220.738 24.3574 219.118 27.7061C218.794 28.6494 218.631 29.502 218.631 30.2627Z" fill="white"/>
	<path d="M20.7934 60.5046C18.3364 61.3991 15.7114 61.6384 13.1994 61.195C8.82044 60.4225 5.06745 57.7712 2.63645 53.7302C0.316445 49.8786 -0.509551 45.2087 0.306443 40.5807L5.62045 15.611C6.83544 8.71355 11.2984 3.07879 17.2684 0.906913C19.7254 0.0123815 22.3514 -0.2259 24.8634 0.216483C29.2674 0.99285 33.0224 3.71062 35.4374 7.86394C37.7154 11.7848 38.5124 16.5436 37.6784 21.2624L32.4425 45.8005C31.2274 52.696 26.7624 58.3327 20.7934 60.5046ZM20.1824 8.91082C17.1114 10.03 14.6874 13.2389 14.0074 17.0905L8.69645 42.0593C8.23545 44.6637 8.67645 47.2477 9.93444 49.3376C11.0774 51.235 12.7615 52.4675 14.6784 52.8054C15.7344 52.9909 16.8104 52.8874 17.8794 52.4997C20.9504 51.3815 23.3744 48.1716 24.0525 44.321L29.2915 19.7829C29.7744 17.0436 29.3414 14.3288 28.0714 12.1452C26.9404 10.196 25.2754 8.94012 23.3834 8.60613C22.3274 8.42058 21.2505 8.52312 20.1824 8.91082Z" fill="white"/>
	<path d="M23.3826 8.61523C25.2746 8.94824 26.9396 10.2041 28.0716 12.1533C29.3396 14.3379 29.7726 17.0518 29.2906 19.793L24.0526 44.3311C23.8696 45.3691 23.5556 46.3584 23.1406 47.2754L31.8446 48.3057C32.0906 47.4941 32.2916 46.6621 32.4416 45.8105L37.6786 21.2705C38.5106 16.5518 37.7146 11.7939 35.4366 7.875L23.3826 8.61523Z" fill="white"/>
	<path d="M68.3304 40.1019C67.9164 37.7855 65.7014 36.2454 63.3874 36.6585C61.0714 37.0726 59.5304 39.2894 59.9464 41.6029C60.4344 44.3441 60.0104 47.0589 58.7484 49.2445C57.6214 51.1976 55.9594 52.4593 54.0674 52.7972C52.1764 53.1351 50.1794 52.5287 48.4454 51.0912C46.5054 49.4779 45.1624 47.0794 44.6704 44.3392L38.5274 15.6234C36.0524 5.21029 28.9894 -1.52799 19.3354 0.317715C17.0244 0.760098 15.4214 2.84604 15.8304 5.16244C16.2374 7.47787 18.4454 9.0267 20.7644 8.6185C24.9084 7.89096 28.9104 10.6497 30.1374 17.1009L36.2854 45.8421C37.1304 50.5589 39.5164 54.7503 43.0054 57.6449C46.7044 60.7162 51.1654 61.9701 55.5704 61.1829C58.1314 60.723 60.4734 59.6078 62.4574 57.9359C63.8814 56.7337 65.1194 55.2435 66.1264 53.5062C68.3914 49.5794 69.1764 44.8216 68.3304 40.1019Z" fill="white"/>
</svg>
